<mxfile host="app.diagrams.net" agent="Mozilla/5.0 (Windows NT 10.0; Win64; x64) AppleWebKit/537.36 (KHTML, like Gecko) Chrome/129.0.0.0 Safari/537.36" version="24.7.16">
  <diagram name="Página-1" id="zKIhIsMi4K_gnuCVG159">
    <mxGraphModel dx="1050" dy="1699" grid="1" gridSize="10" guides="1" tooltips="1" connect="1" arrows="1" fold="1" page="1" pageScale="1" pageWidth="827" pageHeight="1169" math="0" shadow="0">
      <root>
        <mxCell id="0" />
        <mxCell id="1" parent="0" />
        <mxCell id="myDl3uMjhO2kvi4p02pJ-2" value="" style="rounded=0;whiteSpace=wrap;html=1;" parent="1" vertex="1">
          <mxGeometry x="220" y="-1125" width="550" height="410" as="geometry" />
        </mxCell>
        <mxCell id="myDl3uMjhO2kvi4p02pJ-8" style="rounded=0;orthogonalLoop=1;jettySize=auto;html=1;entryX=0;entryY=0.5;entryDx=0;entryDy=0;endArrow=none;endFill=0;" parent="1" target="1kUwHdm25T_ZR4AQLKsN-7" edge="1">
          <mxGeometry relative="1" as="geometry">
            <mxPoint x="200" y="-940" as="sourcePoint" />
          </mxGeometry>
        </mxCell>
        <mxCell id="myDl3uMjhO2kvi4p02pJ-3" value="Usuario" style="shape=umlActor;verticalLabelPosition=bottom;verticalAlign=top;html=1;" parent="1" vertex="1">
          <mxGeometry x="160" y="-960" width="30" height="60" as="geometry" />
        </mxCell>
        <mxCell id="myDl3uMjhO2kvi4p02pJ-6" value="&lt;b&gt;Gestión cliente&lt;/b&gt;" style="text;html=1;align=center;verticalAlign=middle;whiteSpace=wrap;rounded=0;" parent="1" vertex="1">
          <mxGeometry x="455" y="-1120" width="100" height="20" as="geometry" />
        </mxCell>
        <mxCell id="1kUwHdm25T_ZR4AQLKsN-7" value="Crear Clientes" style="ellipse;whiteSpace=wrap;html=1;labelPosition=center;verticalLabelPosition=bottom;align=center;verticalAlign=top;" parent="1" vertex="1">
          <mxGeometry x="330" y="-990" width="96" height="50" as="geometry" />
        </mxCell>
        <mxCell id="1kUwHdm25T_ZR4AQLKsN-9" value="Listar clientes" style="ellipse;whiteSpace=wrap;html=1;labelPosition=center;verticalLabelPosition=bottom;align=center;verticalAlign=top;" parent="1" vertex="1">
          <mxGeometry x="330" y="-1100" width="96" height="50" as="geometry" />
        </mxCell>
        <mxCell id="1kUwHdm25T_ZR4AQLKsN-10" value="Actualizar Datos" style="ellipse;whiteSpace=wrap;html=1;labelPosition=center;verticalLabelPosition=bottom;align=center;verticalAlign=top;" parent="1" vertex="1">
          <mxGeometry x="330" y="-890" width="96" height="50" as="geometry" />
        </mxCell>
        <mxCell id="1kUwHdm25T_ZR4AQLKsN-11" value="Eliminar clientes" style="ellipse;whiteSpace=wrap;html=1;labelPosition=center;verticalLabelPosition=bottom;align=center;verticalAlign=top;" parent="1" vertex="1">
          <mxGeometry x="330" y="-800" width="96" height="50" as="geometry" />
        </mxCell>
        <mxCell id="myDl3uMjhO2kvi4p02pJ-9" style="rounded=0;orthogonalLoop=1;jettySize=auto;html=1;endArrow=none;endFill=0;" parent="1" target="1kUwHdm25T_ZR4AQLKsN-10" edge="1">
          <mxGeometry relative="1" as="geometry">
            <mxPoint x="200" y="-927" as="sourcePoint" />
            <mxPoint x="344" y="-995" as="targetPoint" />
          </mxGeometry>
        </mxCell>
        <mxCell id="gInbnTK78n19PvJXrWei-1" value="Detalle cliente" style="ellipse;whiteSpace=wrap;html=1;labelPosition=center;verticalLabelPosition=bottom;align=center;verticalAlign=top;" parent="1" vertex="1">
          <mxGeometry x="560" y="-960" width="96" height="50" as="geometry" />
        </mxCell>
        <mxCell id="gInbnTK78n19PvJXrWei-2" value="Use" style="endArrow=open;endSize=12;dashed=1;html=1;rounded=0;exitX=1;exitY=0.5;exitDx=0;exitDy=0;" parent="1" source="1kUwHdm25T_ZR4AQLKsN-7" target="gInbnTK78n19PvJXrWei-1" edge="1">
          <mxGeometry width="160" relative="1" as="geometry">
            <mxPoint x="460" y="-890" as="sourcePoint" />
            <mxPoint x="620" y="-890" as="targetPoint" />
          </mxGeometry>
        </mxCell>
        <mxCell id="gInbnTK78n19PvJXrWei-3" value="Use" style="endArrow=open;endSize=12;dashed=1;html=1;rounded=0;exitX=0.95;exitY=0.38;exitDx=0;exitDy=0;exitPerimeter=0;entryX=0.079;entryY=0.684;entryDx=0;entryDy=0;entryPerimeter=0;" parent="1" source="1kUwHdm25T_ZR4AQLKsN-10" target="gInbnTK78n19PvJXrWei-1" edge="1">
          <mxGeometry width="160" relative="1" as="geometry">
            <mxPoint x="440" y="-995" as="sourcePoint" />
            <mxPoint x="512" y="-936" as="targetPoint" />
          </mxGeometry>
        </mxCell>
        <mxCell id="u1jAcBhKdiwAzft6Cf9q-2" value="" style="endArrow=none;html=1;rounded=0;" edge="1" parent="1">
          <mxGeometry width="50" height="50" relative="1" as="geometry">
            <mxPoint x="200" y="-960" as="sourcePoint" />
            <mxPoint x="330" y="-1070" as="targetPoint" />
          </mxGeometry>
        </mxCell>
        <mxCell id="u1jAcBhKdiwAzft6Cf9q-3" style="rounded=0;orthogonalLoop=1;jettySize=auto;html=1;entryX=0.033;entryY=0.324;entryDx=0;entryDy=0;endArrow=none;endFill=0;entryPerimeter=0;" edge="1" parent="1" target="1kUwHdm25T_ZR4AQLKsN-11">
          <mxGeometry relative="1" as="geometry">
            <mxPoint x="200" y="-910" as="sourcePoint" />
            <mxPoint x="340" y="-955" as="targetPoint" />
          </mxGeometry>
        </mxCell>
      </root>
    </mxGraphModel>
  </diagram>
</mxfile>
